<?xml version="1.0" encoding="UTF-8" standalone="no"?>
<!-- Created with Inkscape (http://www.inkscape.org/) -->

<svg
   xmlns:dc="http://purl.org/dc/elements/1.1/"
   xmlns:cc="http://creativecommons.org/ns#"
   xmlns:rdf="http://www.w3.org/1999/02/22-rdf-syntax-ns#"
   xmlns:svg="http://www.w3.org/2000/svg"
   xmlns="http://www.w3.org/2000/svg"
   xmlns:sodipodi="http://sodipodi.sourceforge.net/DTD/sodipodi-0.dtd"
   xmlns:inkscape="http://www.inkscape.org/namespaces/inkscape"
   width="210mm"
   height="297mm"
   viewBox="0 0 744.09448819 1052.3622047"
   id="svg2"
   version="1.1"
   inkscape:version="0.91 r13725"
   sodipodi:docname="Stick8.svg">
  <defs
     id="defs4" />
  <sodipodi:namedview
     id="base"
     pagecolor="#ffffff"
     bordercolor="#666666"
     borderopacity="1.0"
     inkscape:pageopacity="0.0"
     inkscape:pageshadow="2"
     inkscape:zoom="0.7"
     inkscape:cx="376.42857"
     inkscape:cy="377.14286"
     inkscape:document-units="px"
     inkscape:current-layer="layer1"
     showgrid="false"
     inkscape:window-width="1440"
     inkscape:window-height="851"
     inkscape:window-x="120"
     inkscape:window-y="0"
     inkscape:window-maximized="0" />
  <metadata
     id="metadata7">
    <rdf:RDF>
      <cc:Work
         rdf:about="">
        <dc:format>image/svg+xml</dc:format>
        <dc:type
           rdf:resource="http://purl.org/dc/dcmitype/StillImage" />
        <dc:title></dc:title>
      </cc:Work>
    </rdf:RDF>
  </metadata>
  <g
     inkscape:label="Layer 1"
     inkscape:groupmode="layer"
     id="layer1">
    <path
       style="fill:none;fill-rule:evenodd;stroke:#000000;stroke-width:1px;stroke-linecap:butt;stroke-linejoin:miter;stroke-opacity:1"
       d="m 151.42857,882.36221 c 0.29781,-28.58062 0,-232.85714 0,-232.85714 4.54238,-13.37972 14.28572,-38.57143 14.28572,-38.57143 35.64538,-46.46711 51.42857,-20 51.42857,-20 44.26354,-23.67944 79.2965,82.13207 58.57143,102.85714 -8.78592,8.78592 -12.92751,10.07036 -22.85714,20 -41.34098,41.34097 -23.17971,-123.702 -60.00001,-111.42857 -59.90129,19.9671 -24.64567,221.43986 -39.99999,282.85714"
       id="path5939"
       inkscape:connector-curvature="0"
       sodipodi:nodetypes="cssssssc" />
    <path
       style="fill:none;fill-rule:evenodd;stroke:#000000;stroke-width:1px;stroke-linecap:butt;stroke-linejoin:miter;stroke-opacity:1"
       d="m 237.14286,718.07649 c -33.40716,69.41565 27.14286,16.99287 27.14286,-12.85714 30.50696,19.96866 68.68643,-35.71428 51.42857,-35.71428 -13.75639,0 -5.08711,30.31358 -37.14286,14.28571"
       id="path5943"
       inkscape:connector-curvature="0" />
    <path
       style="fill:#00be00;fill-opacity:1;fill-rule:nonzero;stroke:#000000;stroke-width:7.14285707;stroke-linecap:square;stroke-linejoin:miter;stroke-miterlimit:4;stroke-dasharray:none;stroke-opacity:1"
       d="M 153.19546,761.3014 153,648.09774 l 5.51976,-29.92756 c 2.67355,-14.49572 11.27322,-17.30929 15.58239,-22.20478 16.19842,-18.40238 28.92049,-15.3508 38.73251,-7.09454 3.69656,3.11045 4.80292,3.40355 7.46654,1.97803 5.57175,-2.98191 16.26384,-2.03766 23.24351,2.05269 18.01147,10.55543 34.69893,44.27879 36.268,73.2933 0.39018,7.21512 0.2134,14.28655 -0.39285,15.71429 -0.60625,1.42774 -1.23441,3.82132 -1.39591,5.31908 -0.29282,2.7156 -5.28896,7.7377 -21.7796,21.89277 -12.3701,10.61813 -15.22121,11.70906 -19.67245,7.52734 -5.36003,-5.03549 -8.96787,-16.50972 -12.95469,-41.20061 -8.0591,-49.91107 -11.73452,-63.81325 -18.7167,-70.79543 -4.50117,-4.50117 -9.91941,-4.78744 -17.492,-0.92419 -15.00606,7.65552 -16.07604,24.92537 -21.11817,65.06264 -1.93387,15.39436 -0.87727,46.78734 -0.74575,114.28572 0.0873,44.78571 -4.64732,118.46428 -5.28321,123.57142 -0.66803,5.3653 -6.95298,-79.93734 -7.06592,-145.34651 z"
       id="path5945"
       inkscape:connector-curvature="0"
       sodipodi:nodetypes="scsssssssssssssssss" />
    <path
       style="fill:none;fill-rule:evenodd;stroke:#000000;stroke-width:1px;stroke-linecap:butt;stroke-linejoin:miter;stroke-opacity:1"
       d="m 220,605.21935 c 24.67075,24.79435 26.06844,59.98804 35.71429,98.57143"
       id="path5947"
       inkscape:connector-curvature="0"
       sodipodi:nodetypes="cc" />
    <path
       style="fill:#00be00;fill-opacity:1;fill-rule:nonzero;stroke:#000000;stroke-width:7.14285707;stroke-linecap:square;stroke-linejoin:miter;stroke-miterlimit:4;stroke-dasharray:none;stroke-opacity:1"
       d="m 229.07511,744.8622 c 0.40282,-3.33929 2.13975,-9.76786 3.85986,-14.28571 2.90013,-7.61722 3.45747,-8.21484 7.66767,-8.22181 4.44228,-0.007 7.64603,-1.61413 16.55753,-8.30404 3.76601,-2.82717 4.41126,-2.9609 4.41126,-0.91426 0,8.71698 -23.0941,37.79725 -30.01669,37.79725 -2.94137,0 -3.15032,-0.51162 -2.47963,-6.07143 z"
       id="path5949"
       inkscape:connector-curvature="0" />
    <path
       style="fill:#00be00;fill-opacity:1;fill-rule:nonzero;stroke:#000000;stroke-width:7.14285707;stroke-linecap:square;stroke-linejoin:miter;stroke-miterlimit:4;stroke-dasharray:none;stroke-opacity:1"
       d="m 260.21441,705.2938 c -1.66719,-1.05471 9.23865,-1.28226 14.64286,-7.05979 3.69279,-3.94789 6.71416,-7.89463 6.71416,-8.77055 0,-1.09698 2.44489,-1.28709 7.85675,-0.61093 9.61053,1.20076 13.5762,-0.93823 18.03107,-9.72551 3.35925,-6.62618 4.97955,-8.13848 8.75504,-8.17152 3.79353,-0.0332 3.11581,5.59695 -1.55436,12.91273 -5.26301,8.24447 -15.97128,17.99565 -23.53092,21.42776 -6.32319,2.87076 -27.43369,2.19993 -30.9146,-0.002 z"
       id="path5951"
       inkscape:connector-curvature="0"
       sodipodi:nodetypes="sssssssss" />
    <path
       style="fill:none;fill-rule:evenodd;stroke:#000000;stroke-width:3;stroke-linecap:butt;stroke-linejoin:miter;stroke-opacity:1;stroke-miterlimit:4;stroke-dasharray:none"
       d="m 120,1016.6479 c 0,-45.6174 38.11824,-59.80908 37.14286,-108.57141 -2.31492,44.22113 -17.70451,68.11155 5.71428,107.14281"
       id="path5953"
       inkscape:connector-curvature="0" />
    <path
       style="fill:none;fill-rule:evenodd;stroke:#000000;stroke-width:3;stroke-linecap:butt;stroke-linejoin:miter;stroke-opacity:1;stroke-miterlimit:4;stroke-dasharray:none"
       d="m 157.14286,908.07649 c -24.24749,55.83506 40,71.26833 40,108.57141"
       id="path5955"
       inkscape:connector-curvature="0" />
    <path
       style="fill:none;fill-rule:evenodd;stroke:#000000;stroke-width:3;stroke-linecap:butt;stroke-linejoin:miter;stroke-opacity:1;stroke-miterlimit:4;stroke-dasharray:none"
       d="m 182.85714,1020.9336 c 17.25216,-34.50427 22.74487,-87.84205 -24.28571,-105.71425 -4.76786,44.61707 80.89892,70.52965 60,91.42855"
       id="path5957"
       inkscape:connector-curvature="0" />
    <path
       style="fill:none;fill-rule:evenodd;stroke:#000000;stroke-width:3;stroke-linecap:butt;stroke-linejoin:miter;stroke-opacity:1;stroke-miterlimit:4;stroke-dasharray:none"
       d="M 157.14286,909.50506 C 198.03424,933.19033 221.4229,960.9053 230,1003.7908"
       id="path5959"
       inkscape:connector-curvature="0" />
  </g>
</svg>
