<?xml version="1.0" encoding="UTF-8" standalone="no"?>
<!-- Created with Inkscape (http://www.inkscape.org/) -->

<svg
   xmlns:dc="http://purl.org/dc/elements/1.1/"
   xmlns:cc="http://creativecommons.org/ns#"
   xmlns:rdf="http://www.w3.org/1999/02/22-rdf-syntax-ns#"
   xmlns:svg="http://www.w3.org/2000/svg"
   xmlns="http://www.w3.org/2000/svg"
   xmlns:xlink="http://www.w3.org/1999/xlink"
   xmlns:sodipodi="http://sodipodi.sourceforge.net/DTD/sodipodi-0.dtd"
   xmlns:inkscape="http://www.inkscape.org/namespaces/inkscape"
   width="210mm"
   height="297mm"
   viewBox="0 0 744.09448819 1052.3622047"
   id="svg2"
   version="1.1"
   inkscape:version="0.91 r13725"
   sodipodi:docname="Stick1.svg">
  <defs
     id="defs4" />
  <sodipodi:namedview
     id="base"
     pagecolor="#ffffff"
     bordercolor="#666666"
     borderopacity="1.0"
     inkscape:pageopacity="0.0"
     inkscape:pageshadow="2"
     inkscape:zoom="0.49497475"
     inkscape:cx="319.28571"
     inkscape:cy="777.14286"
     inkscape:document-units="px"
     inkscape:current-layer="layer1"
     showgrid="false"
     inkscape:window-width="2560"
     inkscape:window-height="1391"
     inkscape:window-x="0"
     inkscape:window-y="0"
     inkscape:window-maximized="1" />
  <metadata
     id="metadata7">
    <rdf:RDF>
      <cc:Work
         rdf:about="">
        <dc:format>image/svg+xml</dc:format>
        <dc:type
           rdf:resource="http://purl.org/dc/dcmitype/StillImage" />
        <dc:title></dc:title>
      </cc:Work>
    </rdf:RDF>
  </metadata>
  <g
     inkscape:label="Layer 1"
     inkscape:groupmode="layer"
     id="layer1">
    <path
       style="fill:none;fill-rule:evenodd;stroke:#000000;stroke-width:8;stroke-linecap:butt;stroke-linejoin:miter;stroke-miterlimit:4;stroke-dasharray:none;stroke-opacity:1"
       d="m 341.64288,248.93155 c -30.41748,47.8 -47.77276,42.3051 -53.41747,42.23938 C 219.40966,290.36974 167.8719,127.74241 247.30532,91.764778 345.42529,47.323483 375.44062,184.83697 342.16399,249.1467"
       id="path4148"
       inkscape:connector-curvature="0"
       sodipodi:nodetypes="cssc" />
    <path
       style="fill:none;fill-rule:evenodd;stroke:#000000;stroke-width:8;stroke-linecap:butt;stroke-linejoin:miter;stroke-miterlimit:4;stroke-dasharray:none;stroke-opacity:1"
       d="m 290,292.3622 c 2.02981,115.8223 -0.21723,253.78594 2.85714,351.42858"
       id="path4152"
       inkscape:connector-curvature="0"
       sodipodi:nodetypes="cc" />
    <path
       style="fill:none;fill-rule:evenodd;stroke:#000000;stroke-width:8;stroke-linecap:butt;stroke-linejoin:miter;stroke-miterlimit:4;stroke-dasharray:none;stroke-opacity:1"
       d="m 198.57143,133.79077 c 75.34826,46.00247 -223.960872,178.17275 -85.71429,201.42858 47.02679,7.91084 135.43576,25.5843 178.57144,45.71428"
       id="path4154"
       inkscape:connector-curvature="0"
       sodipodi:nodetypes="csc" />
    <path
       style="fill:none;fill-rule:evenodd;stroke:#000000;stroke-width:8;stroke-linecap:butt;stroke-linejoin:miter;stroke-miterlimit:4;stroke-dasharray:none;stroke-opacity:1"
       d="m 295.71429,382.3622 c 456.97185,88.51753 -120.66742,239.03955 31.42857,260"
       id="path4158"
       inkscape:connector-curvature="0"
       sodipodi:nodetypes="cc" />
    <path
       style="fill:none;fill-rule:evenodd;stroke:#000000;stroke-width:8;stroke-linecap:butt;stroke-linejoin:miter;stroke-opacity:1;stroke-miterlimit:4;stroke-dasharray:none"
       d="m 291.42857,643.79078 c -75.14113,119.38591 -15.1714,271.92448 -192.857141,310"
       id="path4160"
       inkscape:connector-curvature="0" />
    <use
       x="0"
       y="0"
       xlink:href="#path4160"
       id="use4162"
       transform="matrix(-1,0,0,1,585.40431,-2.8571429)"
       width="100%"
       height="100%" />
    <path
       style="fill:none;fill-rule:evenodd;stroke:#000000;stroke-width:3.9461863;stroke-linecap:butt;stroke-linejoin:miter;stroke-miterlimit:4;stroke-dasharray:none;stroke-opacity:1"
       d="m 230.48232,152.89587 c 77.07368,-3.59728 -2.45868,36.74233 3.37001,-0.58939"
       id="path4166"
       inkscape:connector-curvature="0"
       sodipodi:nodetypes="cc" />
    <use
       x="0"
       y="0"
       xlink:href="#path4166"
       id="use4168"
       transform="matrix(-1,0,0,1,554.59445,-3.5714286)"
       width="100%"
       height="100%" />
    <path
       style="fill:#000000;fill-opacity:1;fill-rule:nonzero;stroke:#000000;stroke-width:4;stroke-linecap:square;stroke-linejoin:miter;stroke-miterlimit:4;stroke-dasharray:none;stroke-opacity:1"
       id="path4170"
       sodipodi:type="arc"
       sodipodi:cx="253.21428"
       sodipodi:cy="158.07648"
       sodipodi:rx="3.2142856"
       sodipodi:ry="2.1428571"
       sodipodi:start="6.1343785"
       sodipodi:end="6.1200843"
       sodipodi:open="true"
       d="m 256.39304,157.75878 a 3.2142856,2.1428571 0 0 1 -2.69086,2.43572 3.2142856,2.1428571 0 0 1 -3.66318,-1.78519 3.2142856,2.1428571 0 0 1 2.66468,-2.44848 3.2142856,2.1428571 0 0 1 3.68223,1.76769" />
    <path
       style="fill:#000000;fill-opacity:1;fill-rule:nonzero;stroke:#000000;stroke-width:4;stroke-linecap:square;stroke-linejoin:miter;stroke-miterlimit:4;stroke-dasharray:none;stroke-opacity:1"
       id="path4172"
       sodipodi:type="arc"
       sodipodi:cx="313.57141"
       sodipodi:cy="153.79077"
       sodipodi:rx="3.5714285"
       sodipodi:ry="2.1428571"
       sodipodi:start="6.1343785"
       sodipodi:end="6.1200843"
       sodipodi:open="true"
       d="m 317.10337,153.47308 a 3.5714285,2.1428571 0 0 1 -2.98985,2.43572 3.5714285,2.1428571 0 0 1 -4.07019,-1.78519 3.5714285,2.1428571 0 0 1 2.96075,-2.44849 3.5714285,2.1428571 0 0 1 4.09136,1.7677" />
    <path
       style="fill:none;fill-rule:evenodd;stroke:#000000;stroke-width:4;stroke-linecap:butt;stroke-linejoin:miter;stroke-miterlimit:4;stroke-dasharray:none;stroke-opacity:1"
       d="m 229.28571,141.64792 c 15.29868,-13.55399 25.53203,-12.2522 35.71429,5"
       id="path4174"
       inkscape:connector-curvature="0"
       sodipodi:nodetypes="cc" />
    <use
       x="0"
       y="0"
       xlink:href="#path4174"
       id="use4176"
       transform="matrix(-1,0,0,1,550.76293,-2.8571429)"
       width="100%"
       height="100%" />
    <path
       style="fill:none;fill-rule:evenodd;stroke:#000000;stroke-width:4;stroke-linecap:butt;stroke-linejoin:miter;stroke-miterlimit:4;stroke-dasharray:none;stroke-opacity:1"
       d="m 283.57143,176.64792 c 12.67552,24.36627 35.24486,40.71428 -5,40.71428"
       id="path4178"
       inkscape:connector-curvature="0"
       sodipodi:nodetypes="cc" />
    <path
       style="fill:none;fill-rule:evenodd;stroke:#000000;stroke-width:4;stroke-linecap:butt;stroke-linejoin:miter;stroke-opacity:1;stroke-miterlimit:4;stroke-dasharray:none"
       d="m 265.71429,252.3622 c 15.44986,-12.98253 35.71428,-25.66907 35.71428,3.57143"
       id="path4180"
       inkscape:connector-curvature="0" />
  </g>
</svg>
