<?xml version="1.0" encoding="UTF-8" standalone="no"?>
<!-- Created with Inkscape (http://www.inkscape.org/) -->

<svg
   xmlns:dc="http://purl.org/dc/elements/1.1/"
   xmlns:cc="http://creativecommons.org/ns#"
   xmlns:rdf="http://www.w3.org/1999/02/22-rdf-syntax-ns#"
   xmlns:svg="http://www.w3.org/2000/svg"
   xmlns="http://www.w3.org/2000/svg"
   xmlns:sodipodi="http://sodipodi.sourceforge.net/DTD/sodipodi-0.dtd"
   xmlns:inkscape="http://www.inkscape.org/namespaces/inkscape"
   width="210mm"
   height="297mm"
   viewBox="0 0 744.09448819 1052.3622047"
   id="svg2"
   version="1.1"
   inkscape:version="0.91 r13725"
   sodipodi:docname="tree1.svg">
  <defs
     id="defs4" />
  <sodipodi:namedview
     id="base"
     pagecolor="#ffffff"
     bordercolor="#666666"
     borderopacity="1.0"
     inkscape:pageopacity="0.0"
     inkscape:pageshadow="2"
     inkscape:zoom="0.87239299"
     inkscape:cx="484.67731"
     inkscape:cy="565.47026"
     inkscape:document-units="px"
     inkscape:current-layer="layer1"
     showgrid="false"
     inkscape:window-width="1440"
     inkscape:window-height="851"
     inkscape:window-x="0"
     inkscape:window-y="0"
     inkscape:window-maximized="1" />
  <metadata
     id="metadata7">
    <rdf:RDF>
      <cc:Work
         rdf:about="">
        <dc:format>image/svg+xml</dc:format>
        <dc:type
           rdf:resource="http://purl.org/dc/dcmitype/StillImage" />
      </cc:Work>
    </rdf:RDF>
  </metadata>
  <g
     inkscape:label="Layer 1"
     inkscape:groupmode="layer"
     id="layer1">
    <path
       style="fill:#000000;fill-rule:evenodd;stroke:#000000;stroke-width:3;stroke-linecap:butt;stroke-linejoin:miter;stroke-opacity:1;stroke-miterlimit:4;stroke-dasharray:none;fill-opacity:0.78918916"
       d="m 34.388172,212.14454 c 5.946436,1.94188 16.479922,4.44106 22.925447,2.29255 19.774185,-6.5914 50.585921,-15.31507 71.068891,-9.17018 12.56832,3.7705 12.89376,5.97648 24.07172,9.17018 10.27898,2.93685 29.93986,0.88966 40.11953,-1.14627 20.43326,-4.08666 42.60956,3.12255 60.75244,9.17017 15.90753,5.30252 36.78649,-2.89568 50.43598,8.02391 10.76943,8.61554 19.0296,15.59078 27.51054,24.07172 2.68035,2.68035 0.58542,9.19475 2.29255,12.609 0.96265,1.9253 7.25919,6.87605 8.0239,9.17018 2.1841,6.5523 1.69555,16.87172 5.73136,22.92544 16.71035,25.06553 35.35881,46.95557 43.55835,75.65398 6.85388,23.98857 6.71306,49.77766 12.609,73.36144 6.89494,27.57975 -13.86661,52.28317 -6.87763,80.23906 1.95959,7.83836 7.71517,18.03163 12.60899,22.92545 1.54286,1.54286 1.73152,10.3649 2.29255,12.609 6.69682,26.7873 10.40188,58.20359 1.14627,85.97043 -10.50546,31.51639 -47.18837,68.86132 -77.94652,82.53161 -8.55173,3.80076 -17.99318,5.58257 -26.36427,9.17018 -13.76061,5.8974 -51.58225,42.90579 -51.58225,56.16734 0,3.82091 7.67132,0.47393 11.46272,0 6.8287,-0.85358 14.03397,-7.52044 20.6329,-9.17017 3.33345,-0.83337 8.17679,0.46941 11.46273,0 14.00949,-2.00136 35.46037,3.4635 49.28971,-1.14628 4.83879,-1.61293 7.22684,-7.60071 10.31645,-11.46272 15.37865,-19.22331 26.62859,-30.94936 52.72853,-30.94936 9.14473,0 19.96171,2.16181 25.21799,9.17018 6.5142,8.6856 12.44597,21.12453 22.92545,26.36427 5.10982,2.55491 11.61189,1.23577 17.19409,4.58509 8.97556,5.38534 14.92261,9.17018 27.51053,9.17018 4.98186,0 9.91969,1.14627 14.90154,1.14627 6.38037,0 19.54979,2.16624 21.77918,-2.29255 11.03907,-22.07813 -21.32286,-15.36333 -30.94935,-29.80308 -7.98839,-11.98258 46.4396,-11.16837 50.43598,-9.17018 11.0891,5.54455 28.0264,14.27114 36.68072,22.92545 2.47171,2.47171 3.52703,6.90704 6.87763,8.02391 14.12364,4.70788 31.28725,-4.71982 45.8509,-2.29255 15.20427,2.53405 26.96118,14.30463 37.82699,3.43882 1.27825,-1.27825 0,-10.60826 0,-12.609 0,-36.24897 -62.35629,-12.37788 -69.92262,-27.51053 -10.81984,-21.63968 -43.43534,-23.88721 -57.31362,-44.70463 -7.92168,-11.88251 -11.46272,-29.4871 -11.46272,-44.70462 0,-4.69789 2.01357,-15.45948 0,-19.48663 -4.29715,-8.59429 -5.93299,-24.37415 -10.31645,-30.94935 -1.52353,-2.2853 -4.85168,-5.65143 -5.73137,-9.17018 -1.62525,-6.50103 -2.23918,-25.37807 0,-32.09563 1.62714,-4.88141 6.44997,-7.59624 9.17018,-10.31645 4.92021,-4.92021 4.7974,-27.59526 3.43882,-34.38817 -4.81315,-24.06576 -14.80557,-44.22479 -19.48663,-67.63007 -3.7553,-18.77653 -0.77418,-39.40535 -4.58509,-58.4599 -2.5189,-12.59449 -9.07921,-32.36852 -4.58509,-45.85089 2.33782,-7.01347 6.10164,-7.61819 9.17018,-13.75527 9.71073,-19.42146 10.31645,-39.42335 10.31645,-61.89871 0,-6.10268 15.22782,-6.61489 19.48663,-9.17018 9.57761,-5.74656 17.0268,-14.24476 27.51054,-19.48663 2.88038,-1.44019 7.81816,-1.44019 10.31645,-3.43882 11.13844,-8.91075 21.7974,-19.7414 29.80308,-30.94935 9.94744,-13.92642 1.78952,-21.44383 16.04782,-30.94936 11.08483,-7.38989 26.36426,-16.6625 26.36426,-30.94935 0,-0.66032 2.18096,-16.04781 1.14627,-16.04781 -6.09053,0 -13.86283,12.63588 -18.34036,13.75526 -3.08175,0.77044 -18.17202,4.64121 -21.77917,3.43882 -2.72423,-0.90808 0.8233,-10.59088 -3.43882,-9.17018 -13.2884,4.42947 -24.76511,42.11016 -38.97326,51.58226 -5.22869,3.48579 -13.76807,4.59021 -19.48663,6.87763 -25.63423,10.25369 -57.50953,-3.43881 -83.67788,-3.43881 -16.29313,0 1.66846,24.62302 -34.38818,9.17018 -5.30605,-2.27403 -2.39169,-7.02637 -4.58509,-10.31645 -7.5153,-11.27295 -23.82148,-16.72859 -35.53444,-20.63291 -22.31091,-7.43697 -61.85332,14.87885 -80.23907,24.07172 -7.826,3.913 -24.02446,1.14627 -33.2419,1.14627 -10.13509,0 -17.92869,-1.04335 -27.51053,-3.43881 -5.15566,-1.28892 -12.47922,-0.4066 -17.19409,-2.29255 -9.69323,-3.87729 -16.0012,-8.87195 -26.36426,-11.46272 -49.76933,-12.44233 -102.88744,-13.75527 -157.039321,-13.75527 -10.397131,0 -10.010776,3.99921 -16.047814,8.02391 -3.99818,2.66545 -16.047813,3.15753 -16.047813,3.43881 0,4.96718 0,9.93436 0,14.90155 0,7.60284 -4.728517,8.88332 0,18.34035 z"
       id="path4188"
       inkscape:connector-curvature="0" />
    <path
       style="fill:none;fill-rule:evenodd;stroke:#000000;stroke-width:1px;stroke-linecap:butt;stroke-linejoin:miter;stroke-opacity:1"
       d="m 110.04215,204.12064 c -1.54388,24.79081 -4.42907,49.88675 -1.14627,74.5077"
       id="path4933"
       inkscape:connector-curvature="0" />
  </g>
</svg>
